<svg xmlns="http://www.w3.org/2000/svg" xmlns:xlink="http://www.w3.org/1999/xlink" preserveAspectRatio="xMidYMid" width="90.094" height="81.188" viewBox="0 0 90.094 81.188">
  <defs>
    <style>
      .cls-1 {
        fill: #000;
        fill-rule: evenodd;
      }
    </style>
  </defs>
  <path d="M89.283,4.492 C88.872,4.241 88.474,4.091 88.102,4.000 C88.186,4.232 88.189,4.485 88.022,4.649 C87.836,4.831 87.532,4.834 87.415,4.584 C87.307,4.352 87.200,4.119 87.092,3.887 C87.076,3.887 87.058,3.885 87.043,3.886 C87.156,4.129 87.268,4.373 87.382,4.617 C87.497,4.866 87.500,5.160 87.315,5.341 C87.130,5.523 86.827,5.527 86.709,5.276 C86.516,4.861 86.324,4.444 86.131,4.028 C86.117,4.032 86.100,4.037 86.088,4.041 C86.284,4.463 86.480,4.887 86.676,5.310 C86.791,5.559 86.796,5.852 86.610,6.033 C86.424,6.215 86.120,6.220 86.004,5.968 C85.585,5.068 85.168,4.167 84.752,3.267 C84.635,3.016 84.692,2.666 84.876,2.484 C85.063,2.301 85.306,2.357 85.424,2.607 C85.625,3.043 85.827,3.477 86.028,3.911 C86.035,3.891 86.041,3.874 86.048,3.849 C85.851,3.424 85.654,3.000 85.458,2.575 C85.340,2.324 85.397,1.975 85.582,1.793 C85.753,1.624 85.969,1.666 86.094,1.867 C86.012,1.505 85.883,1.121 85.659,0.722 C86.690,-0.287 88.336,-0.263 89.337,0.778 C90.340,1.818 90.313,3.481 89.283,4.492 ZM85.971,6.001 C86.086,6.251 86.090,6.543 85.906,6.725 C85.718,6.907 85.414,6.910 85.298,6.660 C84.879,5.759 84.462,4.860 84.046,3.959 C83.929,3.709 83.986,3.358 84.171,3.175 C84.356,2.994 84.601,3.048 84.719,3.300 C85.135,4.200 85.552,5.102 85.971,6.001 ZM85.265,6.693 C85.381,6.944 85.385,7.234 85.199,7.418 C85.013,7.599 84.709,7.601 84.593,7.352 C84.175,6.451 83.757,5.552 83.340,4.651 C83.223,4.400 83.280,4.050 83.465,3.867 C83.651,3.686 83.895,3.742 84.012,3.992 C84.428,4.892 84.847,5.793 85.265,6.693 ZM84.559,7.386 C84.676,7.635 84.679,7.927 84.493,8.109 C84.307,8.291 84.003,8.295 83.886,8.043 C83.469,7.145 83.052,6.244 82.636,5.343 C82.518,5.093 82.575,4.742 82.761,4.560 C82.946,4.378 83.190,4.433 83.306,4.684 C83.723,5.585 84.141,6.486 84.559,7.386 ZM83.853,8.077 C83.970,8.328 83.974,8.619 83.789,8.802 C83.601,8.984 83.298,8.987 83.182,8.737 C82.763,7.836 82.346,6.935 81.929,6.036 C81.812,5.785 81.869,5.434 82.055,5.252 C82.240,5.070 82.484,5.125 82.601,5.376 C83.017,6.278 83.436,7.178 83.853,8.077 ZM83.149,8.770 C83.265,9.020 83.267,9.311 83.083,9.494 C82.897,9.675 82.592,9.678 82.476,9.429 C82.058,8.528 81.641,7.628 81.224,6.727 C81.106,6.477 81.164,6.126 81.349,5.944 C81.535,5.763 81.779,5.818 81.896,6.068 C82.311,6.968 82.730,7.870 83.149,8.770 ZM82.443,9.461 C82.558,9.712 82.562,10.004 82.377,10.187 C82.191,10.367 81.887,10.370 81.769,10.121 C81.352,9.221 80.935,8.320 80.518,7.419 C80.402,7.168 80.458,6.818 80.644,6.636 C80.829,6.454 81.072,6.510 81.190,6.760 C81.607,7.661 82.024,8.561 82.443,9.461 ZM81.736,10.155 C81.853,10.405 81.857,10.696 81.670,10.878 C81.486,11.060 81.182,11.063 81.064,10.814 C80.648,9.913 80.230,9.011 79.813,8.111 C79.696,7.860 79.753,7.510 79.938,7.328 C80.123,7.146 80.369,7.202 80.485,7.453 C80.902,8.352 81.319,9.253 81.736,10.155 ZM81.030,10.845 C81.147,11.095 81.152,11.387 80.965,11.571 C80.780,11.751 80.477,11.754 80.360,11.506 C79.942,10.605 79.524,9.704 79.107,8.803 C78.990,8.553 79.047,8.202 79.233,8.020 C79.418,7.837 79.663,7.895 79.779,8.144 C80.195,9.046 80.613,9.945 81.030,10.845 ZM80.326,11.537 C80.443,11.787 80.445,12.081 80.260,12.261 C80.074,12.443 79.770,12.447 79.653,12.197 C79.235,11.297 78.818,10.395 78.401,9.495 C78.285,9.245 78.341,8.894 78.528,8.712 C78.713,8.529 78.957,8.587 79.073,8.837 C79.490,9.738 79.909,10.636 80.326,11.537 ZM79.619,12.229 C79.676,12.350 79.705,12.480 79.699,12.602 C79.357,12.147 79.026,11.684 78.717,11.220 L78.707,11.205 L78.692,11.194 C78.420,10.999 78.149,10.793 77.881,10.585 C77.819,10.453 77.758,10.320 77.697,10.188 C77.579,9.937 77.636,9.586 77.822,9.405 C78.007,9.221 78.252,9.277 78.369,9.529 C78.785,10.428 79.203,11.330 79.619,12.229 ZM84.180,17.884 L83.766,18.289 L83.353,18.694 C83.353,18.694 80.204,15.225 76.976,12.901 C75.487,10.655 73.480,8.430 72.334,7.221 C72.524,7.178 72.706,7.087 72.855,6.940 C73.004,6.794 73.099,6.614 73.148,6.423 C74.310,7.615 76.453,9.708 78.632,11.277 C80.838,14.603 84.180,17.884 84.180,17.884 ZM71.381,6.846 C70.997,6.449 71.007,5.813 71.400,5.428 C71.794,5.042 72.422,5.051 72.805,5.449 C73.186,5.846 73.177,6.482 72.784,6.865 C72.391,7.253 71.761,7.243 71.381,6.846 ZM75.478,10.980 C75.793,11.395 76.492,12.366 76.780,12.792 L72.835,16.712 C72.904,16.813 72.967,16.919 73.037,17.018 L77.079,13.103 C77.492,13.407 78.398,14.120 78.800,14.448 C77.684,15.578 76.193,17.076 74.454,18.816 C75.840,20.430 77.404,21.877 79.164,23.055 C78.322,29.571 77.059,35.805 75.410,41.583 C73.203,49.321 70.335,56.091 66.881,61.813 C69.186,64.044 71.118,65.904 72.525,67.241 C73.425,69.208 73.929,71.516 74.774,73.520 C72.766,72.725 70.434,72.294 68.461,71.444 C67.245,70.213 65.604,68.566 63.656,66.618 C58.473,73.535 52.153,78.447 44.849,81.197 C37.620,78.477 31.359,73.633 26.209,66.829 C24.359,68.679 22.784,70.260 21.615,71.444 C19.642,72.294 17.310,72.725 15.302,73.520 C16.148,71.516 16.651,69.208 17.551,67.241 C18.909,65.950 20.759,64.170 22.961,62.041 C19.439,56.264 16.520,49.408 14.281,41.552 C12.635,35.772 11.374,29.552 10.535,23.055 C12.369,21.827 13.989,20.308 15.415,18.610 C13.767,16.960 12.346,15.533 11.276,14.448 C11.679,14.120 12.584,13.407 12.996,13.103 L16.808,16.795 C16.879,16.693 16.944,16.587 17.013,16.484 L13.296,12.792 C13.584,12.366 14.283,11.395 14.598,10.980 C15.570,11.903 16.816,13.099 18.239,14.472 C19.859,11.492 20.935,8.169 21.286,4.686 C28.000,3.127 36.143,2.303 44.849,2.303 C53.556,2.303 61.699,3.127 68.412,4.686 C68.774,8.263 69.890,11.676 71.585,14.715 C73.115,13.238 74.449,11.957 75.478,10.980 ZM72.932,71.683 L65.434,64.104 C65.384,64.180 65.331,64.251 65.281,64.326 L72.932,71.683 ZM17.145,71.683 L24.571,64.544 C24.521,64.472 24.470,64.401 24.421,64.328 L17.145,71.683 ZM70.312,19.658 C70.250,19.574 70.182,19.494 70.121,19.409 L70.120,19.409 C69.656,18.758 69.218,18.088 68.808,17.400 C68.808,17.399 68.809,17.399 68.809,17.399 C67.084,14.505 65.839,11.287 65.176,7.909 C59.221,6.746 52.254,6.135 44.849,6.135 C37.444,6.135 30.479,6.746 24.522,7.909 C23.878,11.196 22.677,14.328 21.023,17.162 C21.024,17.163 21.025,17.164 21.027,17.166 C21.016,17.184 21.003,17.202 20.992,17.220 C20.735,17.657 20.452,18.074 20.174,18.496 C20.024,18.723 19.888,18.962 19.732,19.185 L19.727,19.180 C19.665,19.268 19.613,19.363 19.550,19.450 L19.550,19.451 C19.094,20.086 18.610,20.703 18.104,21.297 C18.104,21.297 18.103,21.296 18.102,21.295 C16.995,22.599 15.778,23.801 14.456,24.871 C15.259,30.401 16.382,35.707 17.795,40.668 C20.083,48.696 23.087,55.618 26.733,61.317 C26.817,61.448 26.895,61.586 26.979,61.715 C27.512,62.533 28.058,63.325 28.618,64.091 C33.131,70.262 38.589,74.723 44.849,77.367 C51.107,74.723 56.560,70.267 61.073,64.105 C65.584,57.941 69.224,50.067 71.896,40.698 C73.312,35.740 74.436,30.426 75.243,24.871 C73.989,23.857 72.830,22.724 71.769,21.499 C71.769,21.500 71.768,21.500 71.768,21.501 C71.761,21.493 71.754,21.484 71.747,21.476 C71.457,21.139 71.192,20.780 70.917,20.430 C70.716,20.173 70.501,19.927 70.307,19.662 L70.312,19.658 ZM73.256,26.583 C72.508,31.529 71.495,36.267 70.228,40.698 C69.467,43.366 68.622,45.901 67.696,48.305 C63.818,42.459 56.003,42.031 56.003,42.031 C56.003,42.031 53.213,41.909 49.380,41.817 C49.260,52.008 49.521,58.175 49.521,58.175 C49.521,58.175 49.616,66.214 51.773,71.127 C49.603,72.739 47.296,74.068 44.855,75.099 C42.434,74.076 40.144,72.759 37.988,71.164 C40.162,66.255 40.256,58.175 40.256,58.175 C40.256,58.175 40.519,52.008 40.399,41.817 C36.565,41.909 33.775,42.031 33.775,42.031 C33.775,42.031 25.903,42.463 22.039,48.369 C21.101,45.938 20.245,43.371 19.476,40.671 C18.206,36.212 17.189,31.458 16.443,26.507 C20.255,30.311 24.416,32.186 27.921,33.146 C33.050,34.269 36.978,34.372 40.254,34.380 C39.977,24.646 37.710,13.144 36.263,8.582 C39.026,8.379 41.903,8.274 44.855,8.274 C47.831,8.274 50.730,8.381 53.513,8.587 C52.067,13.151 49.800,24.650 49.524,34.380 C52.800,34.372 56.727,34.269 61.855,33.146 C65.337,32.192 69.464,30.334 73.256,26.583 ZM17.293,6.865 C16.900,6.482 16.890,5.846 17.271,5.449 C17.655,5.051 18.284,5.042 18.677,5.428 C19.070,5.813 19.080,6.449 18.696,6.846 C18.314,7.243 17.685,7.253 17.293,6.865 ZM17.742,7.221 C16.595,8.430 14.589,10.655 13.100,12.901 C9.872,15.225 6.722,18.694 6.722,18.694 L6.310,18.289 L5.897,17.884 C5.897,17.884 9.238,14.603 11.443,11.277 C13.624,9.708 15.767,7.615 16.929,6.423 C16.977,6.614 17.072,6.794 17.222,6.940 C17.371,7.087 17.553,7.178 17.742,7.221 ZM12.196,10.585 C11.927,10.793 11.657,10.999 11.385,11.194 L11.369,11.205 L11.360,11.220 C11.051,11.684 10.719,12.147 10.378,12.602 C10.372,12.480 10.400,12.350 10.456,12.229 C10.873,11.330 11.291,10.428 11.708,9.529 C11.825,9.277 12.070,9.221 12.255,9.405 C12.441,9.586 12.498,9.937 12.380,10.188 C12.319,10.320 12.257,10.453 12.196,10.585 ZM10.423,12.197 C10.307,12.447 10.002,12.443 9.816,12.261 C9.631,12.081 9.634,11.787 9.750,11.537 C10.168,10.636 10.586,9.738 11.004,8.837 C11.120,8.587 11.364,8.529 11.549,8.712 C11.735,8.894 11.791,9.245 11.675,9.495 C11.258,10.395 10.841,11.297 10.423,12.197 ZM9.717,11.506 C9.601,11.754 9.296,11.751 9.111,11.571 C8.924,11.387 8.929,11.095 9.045,10.845 C9.464,9.945 9.882,9.046 10.297,8.144 C10.414,7.895 10.659,7.837 10.843,8.020 C11.029,8.202 11.086,8.553 10.970,8.803 C10.552,9.704 10.134,10.605 9.717,11.506 ZM9.012,10.814 C8.894,11.063 8.591,11.060 8.405,10.878 C8.220,10.696 8.224,10.405 8.339,10.155 C8.757,9.253 9.175,8.352 9.592,7.453 C9.708,7.202 9.953,7.146 10.139,7.328 C10.324,7.510 10.381,7.860 10.263,8.111 C9.847,9.011 9.429,9.913 9.012,10.814 ZM8.306,10.121 C8.190,10.370 7.886,10.367 7.700,10.187 C7.514,10.004 7.518,9.712 7.634,9.461 C8.052,8.561 8.469,7.661 8.886,6.760 C9.004,6.510 9.247,6.454 9.432,6.636 C9.618,6.818 9.675,7.168 9.559,7.419 C9.141,8.320 8.724,9.221 8.306,10.121 ZM7.601,9.429 C7.485,9.678 7.180,9.675 6.994,9.494 C6.809,9.311 6.811,9.020 6.927,8.770 C7.347,7.870 7.764,6.968 8.180,6.068 C8.297,5.818 8.542,5.763 8.727,5.944 C8.912,6.126 8.969,6.477 8.853,6.727 C8.436,7.628 8.018,8.528 7.601,9.429 ZM6.895,8.737 C6.778,8.987 6.475,8.984 6.288,8.802 C6.104,8.619 6.107,8.328 6.223,8.077 C6.640,7.178 7.059,6.278 7.475,5.376 C7.592,5.125 7.836,5.070 8.023,5.252 C8.208,5.434 8.265,5.785 8.147,6.036 C7.731,6.935 7.314,7.836 6.895,8.737 ZM6.189,8.043 C6.072,8.295 5.769,8.291 5.583,8.109 C5.397,7.927 5.401,7.635 5.518,7.386 C5.935,6.486 6.353,5.585 6.770,4.684 C6.886,4.433 7.130,4.378 7.315,4.560 C7.502,4.742 7.557,5.093 7.441,5.343 C7.025,6.244 6.608,7.145 6.189,8.043 ZM5.483,7.352 C5.368,7.601 5.063,7.599 4.877,7.418 C4.691,7.234 4.696,6.944 4.812,6.693 C5.230,5.793 5.648,4.892 6.063,3.992 C6.181,3.742 6.425,3.686 6.611,3.867 C6.797,4.050 6.853,4.400 6.736,4.651 C6.320,5.552 5.901,6.451 5.483,7.352 ZM4.777,6.660 C4.662,6.910 4.358,6.907 4.171,6.725 C3.986,6.543 3.990,6.251 4.106,6.001 C4.524,5.102 4.942,4.200 5.358,3.300 C5.476,3.048 5.721,2.994 5.905,3.175 C6.091,3.358 6.148,3.709 6.030,3.959 C5.614,4.860 5.197,5.759 4.777,6.660 ZM4.072,5.968 C3.957,6.220 3.652,6.215 3.467,6.033 C3.280,5.852 3.285,5.559 3.401,5.310 C3.597,4.887 3.793,4.464 3.989,4.041 C3.977,4.037 3.960,4.032 3.946,4.028 C3.753,4.444 3.561,4.861 3.368,5.276 C3.250,5.527 2.946,5.523 2.762,5.341 C2.576,5.160 2.579,4.866 2.695,4.617 C2.808,4.373 2.921,4.129 3.034,3.886 C3.018,3.885 3.000,3.887 2.985,3.887 C2.877,4.119 2.769,4.352 2.661,4.584 C2.545,4.834 2.241,4.831 2.055,4.649 C1.887,4.485 1.890,4.232 1.974,4.000 C1.602,4.091 1.204,4.241 0.793,4.492 C-0.236,3.481 -0.263,1.818 0.739,0.778 C1.740,-0.263 3.386,-0.287 4.417,0.722 C4.193,1.122 4.064,1.505 3.982,1.867 C4.108,1.666 4.323,1.624 4.494,1.793 C4.679,1.975 4.736,2.324 4.618,2.575 C4.422,3.000 4.225,3.425 4.028,3.850 C4.036,3.874 4.042,3.891 4.049,3.912 C4.250,3.477 4.452,3.043 4.653,2.607 C4.769,2.357 5.013,2.301 5.200,2.484 C5.385,2.666 5.442,3.016 5.325,3.267 C4.908,4.167 4.490,5.068 4.072,5.968 Z" class="cls-1"/>
</svg>
