<svg
xmlns="http://www.w3.org/2000/svg"
xmlns:xlink="http://www.w3.org/1999/xlink"
width="75px" height="98px">
<path fill-rule="evenodd"  fill="rgb(255, 255, 255)"
d="M65.625,98.000 L9.375,98.000 C4.219,98.000 -0.000,93.800 -0.000,88.667 L-0.000,42.000 C-0.000,36.867 4.219,32.667 9.375,32.667 L14.062,32.667 L14.062,23.333 C14.062,10.267 24.375,-0.000 37.500,-0.000 C50.625,-0.000 60.937,10.267 60.937,23.333 L60.937,32.667 L65.625,32.667 C70.781,32.667 75.000,36.867 75.000,42.000 L75.000,88.667 C75.000,93.800 70.781,98.000 65.625,98.000 ZM52.031,23.333 C52.031,15.400 45.469,8.867 37.500,8.867 C29.531,8.867 22.969,15.400 22.969,23.333 L23.437,23.333 L23.437,32.667 L52.031,32.667 L52.031,23.333 ZM65.625,42.000 L9.375,42.000 L9.375,88.667 L65.625,88.667 L65.625,42.000 ZM37.500,56.000 C42.656,56.000 46.875,60.200 46.875,65.333 C46.875,70.467 42.656,74.667 37.500,74.667 C32.344,74.667 28.125,70.467 28.125,65.333 C28.125,60.200 32.344,56.000 37.500,56.000 Z"/>
</svg>