<svg id="Layer_1" data-name="Layer 1" xmlns="http://www.w3.org/2000/svg" viewBox="0 0 475.74 264.45"><title>40OFF-BRAVUS</title><g id="qwmy4N.tif"><path d="M.95,163.32a12.19,12.19,0,0,1,2-3.94c19.28-25.05,38-50.51,56.89-75.87L89.67,43.45l14.91-20c5.74-7.7,14-22.34,23.8-22,4.56.14,45.7.13,45.7.12V161h26.83c0,3,0,5.55,0,8.12,0,7.33,0,14.67,0,22,0,8.08-3.55,11.63-11.52,11.72-4.5.05-9,0-13.5.08a9.78,9.78,0,0,0-1.63.44v59.21H125.58V202.84h-103c-4.22,0-8.89-.51-12-3.68a22,22,0,0,1-4.34-7.4A98.43,98.43,0,0,1,1.9,177.08C.87,172.5-.46,168,.95,163.32Zm125.1-96.58-67,94h67Z" transform="translate(-0.34 0.37)"/><path d="M313-.37C345.5-.38,378,16.69,394.3,51c10.19,21.4,14.34,44.22,15.13,67.7.43,12.9.08,25.83.08,39H352.09c0-6-.06-11.93,0-17.84.25-21.35.2-42.73-6.2-63.34a75.54,75.54,0,0,0-10.18-21.43c-11.41-15.91-35.15-15.44-46.68.4-8.19,11.25-11.78,24.42-12.82,37.87-1.52,19.7-1.49,39.51-2.11,59.28-.05,1.61,0,3.23,0,5.09H216.16c0-12.8-.37-25.39.08-38,.84-23.27,4.56-46,14.44-67.38C246.94,17.3,280-.35,313-.37Z" transform="translate(-0.34 0.37)"/><path d="M254.1,263.4a45.81,45.81,0,0,1-37.86-49.31c1.94-22.35,17.45-38.66,39.24-41.27,26.89-3.22,48.17,11,53.15,35.56,5.17,25.48-11.84,49.58-37.07,54.73A46.89,46.89,0,0,1,254.1,263.4Zm8.76-73.57c-12.78,0-21.27,6.38-23.89,18.85a52.09,52.09,0,0,0-.75,15.81c1.34,13,10.1,21.25,22.37,22,13.53.81,23.19-5.65,26.05-18.08a48,48,0,0,0,1.09-14.31C286.51,198.58,277.29,189.83,262.86,189.84Z" transform="translate(-0.34 0.37)"/><path d="M355.19,262.83h-21V173.56h57.35v15.7H355.28v22.59h29.94v16.28h-30Z" transform="translate(-0.34 0.37)"/><path d="M416.21,173.43h56.89v15.9H437.16v22.44h30v16.33H436.88v34.6H416.21Z" transform="translate(-0.34 0.37)"/><path d="M472.71,98.58,434,149.34a35.08,35.08,0,0,0-3,4c-2.92,5.26-7.41,6-13.46,4.59,3-4.08,5.81-7.88,8.67-11.62,10.78-14.16,21.81-28.15,32.28-42.54C462.19,98.76,466.19,96.86,472.71,98.58Z" transform="translate(-0.34 0.37)"/><path d="M442,112.74c0,8.72-5.87,15-13.95,15.07-8.26,0-14.19-6.49-14-15.47s5.58-14.79,14-14.84C436.64,97.45,442,103.32,442,112.74Zm-8,0c0-5-2.28-8.23-5.9-8.24s-6.07,3.23-5.87,8.25c.15,3.77.91,7.49,5.65,8C431.52,121,434,117.66,434,112.69Z" transform="translate(-0.34 0.37)"/><path d="M476.08,144.33c-.07,8.7-5.93,14.85-14.13,14.82S448,153.1,448,144.2c0-9.12,5.72-15.35,14.13-15.32S476.15,135.09,476.08,144.33Zm-8.1.47c.07-5.58-2.13-8.75-5.78-8.85s-6,3-6,8.12,2.26,8.23,6.05,8C467.18,151.8,467.62,148,468,144.8Z" transform="translate(-0.34 0.37)"/></g></svg>